<?xml version="1.0" standalone="no"?><!DOCTYPE svg PUBLIC "-//W3C//DTD SVG 1.1//EN" "http://www.w3.org/Graphics/SVG/1.1/DTD/svg11.dtd"><svg class="icon" width="200px" height="200.00px" viewBox="0 0 1024 1024" version="1.1" xmlns="http://www.w3.org/2000/svg"><path d="M896 885.333333l-174.933333-174.933333-29.866667-29.866667c-57.6 59.733333-138.666667 96-228.266667 96-177.066667 0-320-142.933333-320-320s142.933333-320 320-320 320 142.933333 320 320c0 64-19.2 123.733333-51.2 174.933334l29.866667 29.866666c40.533333-57.6 64-128 64-204.8 0-200.533333-162.133333-362.666667-362.666667-362.666666s-362.666667 162.133333-362.666666 362.666666 162.133333 362.666667 362.666666 362.666667c85.333333 0 164.266667-29.866667 226.133334-78.933333l177.066666 177.066666 29.866667-32z"  /><path d="M256 448c4.266667-115.2 98.133333-206.933333 213.333333-206.933333v-42.666667c-138.666667 0-251.733333 110.933333-256 249.6h42.666667z" fill="#ED3F80" /></svg>